<svg id="Layer_1" xmlns="http://www.w3.org/2000/svg" viewBox="0 0 1006 320"><style>.st0{fill:#2ae}.st1{fill:#fff}.st2{fill:#666}.st3{fill:#999}</style><path class="st0" d="M248.5 132.4L158.1 42c-8.8-8.8-23-8.8-31.8 0l-90.4 90.4c-8.8 8.8-8.8 23 0 31.8l21.3 21.3.3.3 97.5 97.5c2.6 2.6 6.9.7 6.9-2.9v-29.8l86.5-86.5c8.9-8.7 8.9-22.9.1-31.7z"/><path class="st1" d="M165.5 147.5h-21.6v-45.2c0-1.4-1.1-2.5-2.5-2.5H116c-9.5 0-17.1 2.4-22.4 7.2-5.2 4.7-8 11.6-8 19.8 0 17.1 11.1 26.9 30.3 26.9h21.6v45.2c0 1.4 1.1 2.5 2.5 2.5h25.4c9.5 0 17.1-2.4 22.4-7.2 5.2-4.7 8-11.6 8-19.8 0-17.1-11-26.9-30.3-26.9zm-21.6 47.7v-41.5h21.4c8 0 14.1 1.8 18.2 5.4 4 3.5 6 8.6 6 15.3 0 6.7-2 11.8-6 15.3-4.1 3.6-10.2 5.5-18.2 5.5h-21.4zm-27.8-47.7c-8 0-14.1-1.8-18.2-5.4-4-3.5-6-8.6-6-15.3 0-6.7 2-11.8 6-15.3 4.1-3.6 10.2-5.5 18.2-5.5h21.4v41.5h-21.4z"/><path class="st1" d="M153.9 106h10.3c8 0 14.1 1.8 18.2 5.5 4 3.5 6 8.7 6 15.3 0 7-1.3 11.1-5.7 14.6-.5.4-.8 1-.9 1.7-.1.7.1 1.4.6 1.9l.8 1c.5.6 1.2.9 1.9.9.6 0 1.1-.2 1.6-.6l.9-.8 1-1 .1-.1c4.6-4.6 6.1-9.9 6.1-17.7 0-8.3-2.8-15.1-8-19.8-5.3-4.8-12.8-7.2-22.4-7.2h-10.5c-1.4 0-2.5 1.1-2.5 2.5v1.2c0 1.5 1.1 2.6 2.5 2.6z"/><path class="st2" d="M320.1 84.2c22.3 0 34.7 11.8 34.7 31.1 0 19.6-12.5 31-34.7 31h-27.7V185c0 .6-.3.9-.9.9h-3c-.6 0-.9-.3-.9-.9V85c0-.6.3-.9.9-.9h31.6zm-.4 57.6c20 0 30.4-9.4 30.4-26.4s-10.4-26.7-30.4-26.7h-27.3v53.2h27.3zm63.9 43.2c0 .6-.4.9-.9.9h-3c-.6 0-1-.3-1-.9V85c0-.6.4-.9 1-.9h3c.4 0 .9.3.9.9v100zm29.4.8c-.6 0-1-.3-1-.9V85c0-.6.4-.9 1-.9h3c.4 0 .9.3.9.9v55.9l56.7-56.2c.4-.4.9-.6 1.3-.6h4c.7 0 1.1.6.6 1.1L434.3 130l47.9 54.6c.6.7.1 1.1-.6 1.1h-4c-.4 0-.9-.1-1.1-.6L431 133.2 416.9 147v38c0 .6-.4.9-.9.9h-3zm116.2 1.5c-22.3 0-37.1-14.1-37.1-33.3v-36.8c0-20.5 14.6-34.4 37.1-34.4 22.3 0 37 13.9 37 34.4V154c0 19.2-14.8 33.3-37 33.3zm0-4.6c19.6 0 32.3-12.1 32.3-28.7v-36.8c0-17.9-12.5-30-32.3-30-19.9 0-32.4 12.1-32.4 30V154c0 16.6 12.7 28.7 32.4 28.7zm106.5-51.5c13.7 2.7 21 12.2 21 26.4 0 17.8-12.4 28.2-35.1 28.2h-30.3c-.6 0-1-.3-1-.9V85c0-.6.4-.9 1-.9h30.3c23 0 31 11.4 31 24.6.1 11.6-6.5 19.5-16.9 22.5zm-14-42.6h-26.4v40.5h29c14.8 0 23.6-7.4 23.6-20.3-.1-10.6-5.9-20.2-26.2-20.2zm0 92.8c20.3 0 30.4-8.8 30.4-23.7 0-14.5-8.5-24.2-27.9-24.2h-29v47.9h26.5zm77.2 4.4c-.6 0-.9-.3-.9-.9v-39.4l-34.3-60.3c-.3-.7 0-1.1.7-1.1h3.4c.4 0 .9.1 1 .6l31.6 56.2L732 84.7c.1-.4.7-.6 1.1-.6h3.3c.7 0 1 .4.7 1.1l-34.3 60.3V185c0 .6-.4.9-1 .9h-2.9zM815.7 84.2c.6 0 1 .3 1 .9v2.7c0 .6-.4.9-1 .9h-33.1V185c0 .6-.4.9-.9.9h-3c-.6 0-1-.3-1-.9V88.6H745c-.6 0-.9-.3-.9-.9V85c0-.6.3-.9.9-.9h70.7zm18.8 97.2h53.7c.6 0 .9.3.9.9v2.7c0 .6-.3.9-.9.9h-57.6c-.6 0-1-.3-1-.9V85c0-.6.4-.9 1-.9h55.5c.6 0 .9.3.9.9v2.7c0 .6-.3.9-.9.9h-51.6v43.2h48.6c.6 0 1 .3 1 .9v2.7c0 .6-.4.9-1 .9h-48.6v45.1zm104.8 5.9c-14.2 0-24-4.1-35-13.4-.4-.4-.4-.9-.1-1.3l1.7-2.1c.4-.4.9-.6 1.3-.3 10.2 8.5 19.6 12.5 32.1 12.5 17.6 0 30-7.4 30-22.3 0-12.9-8.1-18.9-31-24.2-21.8-5-33.7-13.4-33.7-28.9 0-16.9 15.4-24.6 33.4-24.6 13.4 0 23.6 3.8 33.1 11.4.6.3.4.9.1 1.1l-1.4 2.3c-.4.6-.9.6-1.3.3-8.8-7.1-19.2-10.5-31.1-10.7-14.9 0-28 6.4-28 20.5 0 12.9 10.1 19.3 29.9 24 25.2 6 34.8 13.5 34.8 28.7 0 17.4-14 27-34.8 27z"/><path class="st3" d="M288.2 230.5c-.4 0-.5-.2-.5-.5v-20.7c0-.4.2-.5.5-.5h7.5c4.9 0 8.6 2.2 8.6 8.5v4.8c0 6.3-3.8 8.4-8.6 8.4h-7.5zm4.4-4.6h3.2c2.3 0 3.5-1.1 3.5-3.6V217c0-2.5-1.2-3.7-3.5-3.7h-3.2v12.6zm15.5 4.6c-.4 0-.5-.2-.4-.6l7.1-20.8c.1-.3.3-.4.6-.4h4.6c.3 0 .5.2.6.4l7.1 20.8c.2.4 0 .6-.4.6h-4.1c-.3 0-.5-.2-.6-.5l-1.1-3.7H314l-1.2 3.7c-.1.3-.3.5-.6.5h-4.1zm7.1-8.4h4.9c-.9-2.7-1.8-6-2.4-8.1h-.1c-.6 2.1-1.6 5.4-2.4 8.1zm29.7-13.4c.3 0 .5.2.5.5v3.5c0 .3-.2.5-.5.5h-5.6V230c0 .4-.2.5-.5.5H335c-.3 0-.5-.2-.5-.5v-16.7h-5.6c-.4 0-.5-.2-.5-.5v-3.5c0-.4.2-.5.5-.5h16zm1.6 21.8c-.4 0-.5-.2-.4-.6l7.1-20.8c.1-.3.3-.4.6-.4h4.6c.3 0 .5.2.6.4l7.1 20.8c.2.4 0 .6-.4.6h-4.1c-.3 0-.5-.2-.6-.5l-1.1-3.7h-7.4l-1.2 3.7c-.1.3-.3.5-.6.5h-4.2zm7.1-8.4h4.9c-.9-2.7-1.8-6-2.4-8.1h-.1c-.6 2.1-1.5 5.4-2.4 8.1zm16.2 1.4c-.4 0-.5-.2-.5-.5v-3c0-.4.2-.5.5-.5h7.7c.4 0 .5.2.5.5v3c0 .3-.2.5-.5.5h-7.7zm14.8 7c-.4 0-.5-.2-.5-.5v-20.7c0-.4.2-.5.5-.5h7.5c4.9 0 8.6 2.2 8.6 8.5v4.8c0 6.3-3.8 8.4-8.6 8.4h-7.5zm4.3-4.6h3.2c2.3 0 3.5-1.1 3.5-3.6V217c0-2.5-1.2-3.7-3.5-3.7h-3.2v12.6zm29.3 4.6c-.3 0-.5-.1-.6-.4l-4.2-6.9h-2v6.7c0 .4-.2.5-.5.5H407c-.4 0-.5-.2-.5-.5v-20.7c0-.4.2-.5.5-.5h7.4c5.2 0 8.1 2.8 8.1 7.4 0 3.2-1.6 5.4-4.4 6.4l4.9 7.4c.2.4.1.6-.4.6h-4.4zm-6.8-17.3v5.7h2.9c2.3 0 3.2-.9 3.2-2.9s-1-2.9-3.2-2.9h-2.9zm21.5 16.8c0 .4-.2.5-.5.5h-3.8c-.4 0-.5-.2-.5-.5v-20.7c0-.4.2-.5.5-.5h3.8c.4 0 .5.2.5.5V230zm12.1.5c-.3 0-.5-.2-.6-.4l-7.1-20.8c-.1-.4 0-.6.4-.6h4.1c.3 0 .5.2.6.5l3.2 9.9c.6 1.9 1.2 4.2 1.7 5.9h.2c.5-1.7 1.1-4 1.7-5.9l3.2-9.9c.1-.3.3-.5.6-.5h4.1c.4 0 .6.2.4.6l-7.1 20.8c-.1.3-.3.4-.6.4H445zm21.7-4.4h9.1c.3 0 .5.2.5.5v3.4c0 .4-.2.5-.5.5h-13.4c-.4 0-.5-.2-.5-.5v-20.7c0-.4.2-.5.5-.5h12.9c.4 0 .5.2.5.5v3.4c0 .3-.2.5-.5.5h-8.6v4.2h7.6c.4 0 .5.2.5.5v3.3c0 .3-.2.5-.5.5h-7.6v4.4zm15.6 4.4c-.4 0-.5-.2-.5-.5v-20.7c0-.4.2-.5.5-.5h4.1c.3 0 .5.1.6.4l4.1 7.3c1.3 2.4 2.6 5 3.3 6.5h.1c-.2-2.7-.3-5.6-.3-8.1v-5.5c0-.4.2-.5.5-.5h3.8c.3 0 .5.2.5.5V230c0 .4-.2.5-.5.5h-4.1c-.3 0-.5-.1-.6-.4l-4-6.6c-1.3-2.3-2.8-5.4-3.5-7.1h-.1c.3 2.8.5 6 .5 8.7v4.8c0 .4-.2.5-.5.5h-3.9zm38.4.4c-3.1 0-5.4-.9-8-3-.3-.2-.3-.5-.1-.7l2.1-3c.2-.2.5-.3.7-.1 1.8 1.3 3.7 2.1 5.7 2.1s3.4-.7 3.4-2c0-1.6-1.8-2-3.9-2.5-3.1-.6-7.7-2.2-7.7-7.1 0-4.2 3.6-6.3 8.3-6.3 2.7 0 4.8.7 7.4 2.3.3.2.4.5.2.7l-2 2.9c-.2.3-.5.3-.8.2-1.6-1-3.4-1.5-5.1-1.5-2.2 0-3 .7-3 1.8 0 1.3 1.3 1.7 3.9 2.3 4.2 1 7.7 2.4 7.7 7 0 4.3-3.4 6.9-8.8 6.9zm22.1 0c-5.6 0-8.9-3.2-8.9-8.7V217c0-5.4 3.3-8.6 8.9-8.6 5.6 0 8.9 3.2 8.9 8.6v5.3c0 5.4-3.3 8.6-8.9 8.6zm0-4.6c2.6 0 3.9-1.4 3.9-4.1V217c0-2.7-1.3-4.1-3.9-4.1-2.6 0-3.9 1.4-3.9 4.1v5.1c0 2.8 1.3 4.2 3.9 4.2zm29-13.6c0 .3-.2.5-.5.5h-8.8v4.8h7.6c.3 0 .5.2.5.5v3.3c0 .3-.2.5-.5.5h-7.6v7.5c0 .4-.2.5-.5.5h-4c-.4 0-.5-.2-.5-.5v-20.7c0-.4.2-.5.5-.5h13.2c.4 0 .5.2.5.5v3.6zm19.7-4c.3 0 .5.2.5.5v3.5c0 .3-.2.5-.5.5h-5.6V230c0 .4-.2.5-.5.5h-3.8c-.3 0-.5-.2-.5-.5v-16.7h-5.6c-.4 0-.5-.2-.5-.5v-3.5c0-.4.2-.5.5-.5h16zm9.4 21.8c-.3 0-.5-.2-.6-.5l-5.8-20.7c-.1-.4.1-.6.5-.6h4.1c.3 0 .5.2.6.5l1.7 7c.5 2 1.3 6.1 1.7 8.7h.1c.5-2.6 1.3-6.3 2-8.8l1.8-6.6c.1-.3.3-.5.6-.5h4.1c.3 0 .5.2.6.5l1.8 6.6c.6 2.5 1.5 6.2 1.9 8.8h.1c.4-2.6 1.3-6.6 1.7-8.7l1.6-7c.1-.3.3-.5.6-.5h4.1c.4 0 .6.2.5.6l-5.8 20.7c-.1.3-.3.5-.6.5h-4.4c-.3 0-.5-.2-.6-.5l-2-7c-.6-2.3-1.3-5.9-1.6-7.9h-.1c-.2 2-.9 5.6-1.6 7.9l-2 7c-.1.3-.3.5-.6.5h-4.4zm25.4 0c-.4 0-.5-.2-.4-.6l7.1-20.8c.1-.3.3-.4.6-.4h4.6c.3 0 .5.2.6.4l7.1 20.8c.2.4 0 .6-.4.6h-4.1c-.3 0-.5-.2-.6-.5l-1.1-3.7h-7.4l-1.2 3.7c-.1.3-.3.5-.6.5h-4.2zm7.1-8.4h4.9c-.9-2.7-1.8-6-2.4-8.1h-.1c-.6 2.1-1.6 5.4-2.4 8.1zm28.5 8.4c-.3 0-.5-.1-.6-.4l-4.2-6.9h-2v6.7c0 .4-.2.5-.5.5h-3.8c-.4 0-.5-.2-.5-.5v-20.7c0-.4.2-.5.5-.5h7.4c5.2 0 8.1 2.8 8.1 7.4 0 3.2-1.6 5.4-4.4 6.4l4.9 7.4c.2.4.1.6-.4.6h-4.5zm-6.8-17.3v5.7h2.9c2.3 0 3.2-.9 3.2-2.9s-1-2.9-3.2-2.9h-2.9zm21.5 12.9h9.1c.3 0 .5.2.5.5v3.4c0 .4-.2.5-.5.5h-13.4c-.4 0-.5-.2-.5-.5v-20.7c0-.4.2-.5.5-.5h12.9c.4 0 .5.2.5.5v3.4c0 .3-.2.5-.5.5h-8.6v4.2h7.6c.4 0 .5.2.5.5v3.3c0 .3-.2.5-.5.5h-7.6v4.4zm21 4.4c-.4 0-.5-.2-.4-.6l7.1-20.8c.1-.3.3-.4.6-.4h4.6c.3 0 .5.2.6.4l7.1 20.8c.2.4 0 .6-.4.6h-4.1c-.3 0-.5-.2-.6-.5l-1.1-3.7h-7.4l-1.2 3.7c-.1.3-.3.5-.6.5h-4.2zm7.1-8.4h4.9c-.9-2.7-1.8-6-2.4-8.1h-.1c-.6 2.1-1.6 5.4-2.4 8.1zm17.3 8.4c-.4 0-.5-.2-.5-.5v-20.7c0-.4.2-.5.5-.5h4.1c.3 0 .5.1.6.4l4.1 7.3c1.3 2.4 2.6 5 3.3 6.5h.1c-.2-2.7-.3-5.6-.3-8.1v-5.5c0-.4.2-.5.5-.5h3.8c.3 0 .5.2.5.5V230c0 .4-.2.5-.5.5h-4.1c-.3 0-.5-.1-.6-.4l-4-6.6c-1.3-2.3-2.8-5.4-3.5-7.1h-.1c.3 2.8.5 6 .5 8.7v4.8c0 .4-.2.5-.5.5H722zm23.6 0c-.4 0-.5-.2-.5-.5v-20.7c0-.4.2-.5.5-.5h7.5c4.9 0 8.6 2.2 8.6 8.5v4.8c0 6.3-3.8 8.4-8.6 8.4h-7.5zm4.4-4.6h3.2c2.3 0 3.5-1.1 3.5-3.6V217c0-2.5-1.2-3.7-3.5-3.7H750v12.6zm34 5.1c-5.4 0-8.9-2.8-8.9-8.1v-6.4c0-5.3 3.6-8.1 8.8-8.1 2.4 0 4.8.7 6.5 2 .3.2.3.4.2.7l-1.9 2.9c-.2.3-.5.3-.8.2-1.1-.7-2.6-1.1-3.9-1.1-2.6 0-3.9 1.5-3.9 3.7v6c0 2.3 1.5 3.7 4 3.7 1.5 0 3-.5 4.2-1.3.3-.2.5-.2.7.1l2 2.9c.2.3.2.5 0 .7-1.9 1.1-4.2 2.1-7 2.1zm19.7-.1c-5.6 0-8.9-3.2-8.9-8.7V217c0-5.4 3.3-8.6 8.9-8.6 5.6 0 8.9 3.2 8.9 8.6v5.3c0 5.4-3.3 8.6-8.9 8.6zm0-4.6c2.6 0 3.9-1.4 3.9-4.1V217c0-2.7-1.3-4.1-3.9-4.1-2.6 0-3.9 1.4-3.9 4.1v5.1c0 2.8 1.3 4.2 3.9 4.2zm15.2 4.2c-.4 0-.5-.2-.5-.5v-20.7c0-.4.2-.5.5-.5h4.1c.3 0 .5.1.6.4l4.1 7.3c1.3 2.4 2.6 5 3.3 6.5h.1c-.2-2.7-.3-5.6-.3-8.1v-5.5c0-.4.2-.5.5-.5h3.8c.3 0 .5.2.5.5V230c0 .4-.2.5-.5.5H831c-.3 0-.5-.1-.6-.4l-4-6.6c-1.3-2.3-2.8-5.4-3.5-7.1h-.1c.3 2.8.5 6 .5 8.7v4.8c0 .4-.2.5-.5.5h-3.9zm30.2.4c-3.1 0-5.4-.9-8-3-.3-.2-.3-.5-.1-.7l2.1-3c.2-.2.5-.3.7-.1 1.8 1.3 3.7 2.1 5.7 2.1s3.4-.7 3.4-2c0-1.6-1.8-2-3.9-2.5-3.1-.6-7.7-2.2-7.7-7.1 0-4.2 3.6-6.3 8.3-6.3 2.7 0 4.9.7 7.4 2.3.3.2.4.5.2.7l-2 2.9c-.2.3-.5.3-.8.2-1.6-1-3.4-1.5-5.1-1.5-2.2 0-3 .7-3 1.8 0 1.3 1.3 1.7 3.9 2.3 4.2 1 7.7 2.4 7.7 7 0 4.3-3.4 6.9-8.8 6.9zm22.2 0c-5.4 0-8.5-3-8.5-8.4v-13.2c0-.4.2-.5.5-.5h3.9c.3 0 .5.2.5.5v13.2c0 2.5 1.3 3.8 3.5 3.8s3.6-1.3 3.6-3.8v-13.2c0-.4.2-.5.5-.5h3.9c.3 0 .5.2.5.5v13.2c.1 5.3-3 8.4-8.4 8.4zm15.4-.4c-.4 0-.5-.2-.5-.5v-20.7c0-.4.2-.5.5-.5h3.8c.3 0 .5.2.5.5V226h8.3c.3 0 .5.2.5.5v3.5c0 .4-.2.5-.5.5h-12.6zm29.7-21.8c.3 0 .5.2.5.5v3.5c0 .3-.2.5-.5.5h-5.6V230c0 .4-.2.5-.5.5h-3.8c-.3 0-.5-.2-.5-.5v-16.7h-5.6c-.4 0-.5-.2-.5-.5v-3.5c0-.4.2-.5.5-.5h16zm10 21.3c0 .4-.2.5-.5.5h-3.8c-.4 0-.5-.2-.5-.5v-20.7c0-.4.2-.5.5-.5h3.8c.4 0 .5.2.5.5V230zm7 .5c-.4 0-.5-.2-.5-.5v-20.7c0-.4.2-.5.5-.5h4.1c.3 0 .5.1.6.4l4.1 7.3c1.3 2.4 2.6 5 3.3 6.5h.1c-.2-2.7-.3-5.6-.3-8.1v-5.5c0-.4.2-.5.5-.5h3.8c.3 0 .5.2.5.5V230c0 .4-.2.5-.5.5h-4.1c-.3 0-.5-.1-.6-.4l-4-6.6c-1.3-2.3-2.8-5.4-3.5-7.1h-.1c.3 2.8.5 6 .5 8.7v4.8c0 .4-.2.5-.5.5h-3.9zm31.2.4c-5.2 0-8.8-2.8-8.8-8.1v-6.4c0-5.3 3.6-8.1 8.8-8.1 2.6 0 5.3.7 7.3 2 .3.2.3.5.2.8l-2 2.9c-.2.3-.5.3-.7.1-1.3-.8-2.9-1.2-4.7-1.2-2.3 0-3.8 1.3-3.8 3.6v6.1c0 2.4 1.5 3.6 3.8 3.6 1.3 0 2.5-.3 3.4-.9v-3.5h-3.3c-.3 0-.5-.2-.5-.5v-3c0-.3.2-.5.5-.5h7.4c.3 0 .5.2.5.5v8.8c0 .3-.1.5-.2.6-1.9 1.9-4.7 3.2-7.9 3.2zm15.4-.1c-1.6 0-2.7-1.2-2.7-2.7 0-1.6 1.1-2.7 2.7-2.7s2.7 1.1 2.7 2.7c.1 1.5-1.1 2.7-2.7 2.7z"/></svg>